<!DOCTYPE svg PUBLIC "-//W3C//DTD SVG 1.1//EN" "http://www.w3.org/Graphics/SVG/1.1/DTD/svg11.dtd">
<!-- Uploaded to: SVG Repo, www.svgrepo.com, Transformed by: SVG Repo Mixer Tools -->
<svg height="800px" width="800px" version="1.1" id="Capa_1" xmlns="http://www.w3.org/2000/svg" xmlns:xlink="http://www.w3.org/1999/xlink" viewBox="0 0 51.827 51.827" xml:space="preserve" fill="#000000">
<g id="SVGRepo_bgCarrier" stroke-width="0"/>
<g id="SVGRepo_tracerCarrier" stroke-linecap="round" stroke-linejoin="round"/>
<g id="SVGRepo_iconCarrier"> <g> <path style="fill:#010002;" d="M31.531,51.01c0,0.451-1.081,0.817-2.414,0.817h-4.828c-1.333,0-2.414-1.047-2.414-2.339 c0-0.962,0.573-1.607,1.389-1.708c-0.03,1.172,0.791,2.226,1.98,2.437c0.142,0.025,0.284,0.037,0.424,0.037 c0.898,0,1.691-0.495,2.105-1.245l1.455,0.458C30.5,49.868,31.531,50.559,31.531,51.01z M32.628,4.323 c0.056,0.295,0.088,0.598,0.088,0.909c0,0.6-0.11,1.174-0.31,1.704c-0.314,0.831-0.455,1.392-0.019,1.386 c0.436-0.006,1.225-0.617,1.49-1.466c0.16-0.511,0.247-1.057,0.247-1.625c0-0.155-0.01-0.307-0.022-0.458 c-0.081-0.998-0.429-1.916-0.968-2.673c-0.515-0.724-1.315-0.962-1.48-0.682c-0.165,0.28,0.207,0.979,0.542,1.64 C32.396,3.451,32.543,3.876,32.628,4.323z M23.723,5.322c-0.002-0.03-0.004-0.06-0.004-0.091c0-1.733,0.225-3.265,1.34-4.217 C25.803,0.379,26.938,0,28.682,0c0.524,0,1.029,0.086,1.503,0.246c0.8,0.269,1.154,0.892,0.989,1.17 c-0.165,0.28,0.207,0.979,0.542,1.64c0.2,0.394,0.347,0.818,0.432,1.265c0.056,0.295,0.088,0.598,0.088,0.909 c0,0.6-0.11,1.174-0.31,1.704c-0.206,0.544-0.798,0.96-1.431,1.17c-0.273-0.055-0.556-0.085-0.845-0.085h-0.281 c-1.754,0-2.973-0.148-3.273-0.232c-0.101-0.06-0.218-0.108-0.334-0.156c-0.48-0.297-0.891-0.72-1.129-1.126 C24.235,5.826,23.726,5.372,23.723,5.322z M27.006,4.098c0.176,0.211,0.49,0.241,0.704,0.065c0.245-0.204,0.544-0.312,0.863-0.312 c0.747,0,1.353,0.606,1.353,1.352c0,0.387-0.166,0.756-0.457,1.013c-0.206,0.184-0.226,0.499-0.042,0.706 c0.099,0.111,0.236,0.168,0.374,0.168c0.118,0,0.236-0.042,0.332-0.126c0.504-0.446,0.793-1.089,0.793-1.76 c0-1.297-1.056-2.352-2.353-2.352c-0.547,0-1.081,0.192-1.502,0.542C26.859,3.57,26.829,3.886,27.006,4.098z M22.807,24.648 c0.005-0.08,0.024-0.156,0.024-0.238v-2.029c-0.307-0.585-0.497-1.239-0.497-1.944v-8.896c0-0.415,0.021-1.01,0.106-1.622 c-0.649-1.389-2.049-2.358-3.683-2.358c-2.25,0-4.074,1.824-4.074,4.074V24.41c0,2.25,1.824,4.074,4.074,4.074 c1.615,0,2.997-0.947,3.657-2.309C22.415,25.629,22.558,25.11,22.807,24.648z M26.268,8.835c-0.32-0.049-0.555-0.105-0.646-0.165 C25.33,8.477,24.7,8.321,24.214,8.321c-0.456,0-0.826,1.27-0.871,2.892C23.727,10.111,24.813,9.235,26.268,8.835z M32.113,21.53 l0.31,0.516c0.276-0.475,0.446-1.02,0.446-1.609v-7.843c-0.191,0.945-0.902,1.782-1.987,2.329c0.028,0.156,0.041,0.314,0.041,0.472 v2.438c0.001,0.801-0.338,1.516-0.868,2.019c0.05,0.12,0.086,0.247,0.111,0.378C30.959,20.357,31.684,20.817,32.113,21.53z M24.721,23.079c0.125-0.038,0.247-0.084,0.38-0.107c0.187-0.033,0.377-0.049,0.566-0.049c0.552,0,1.071,0.145,1.53,0.39 c-0.065-0.369-0.06-0.742,0.021-1.097c-0.536-0.345-0.894-0.945-0.894-1.629c0-0.26,0.053-0.508,0.147-0.736 c-0.53-0.503-0.869-1.218-0.869-2.019v-2.438c0-0.095,0.005-0.189,0.014-0.282c-1.147-0.466-1.959-1.241-2.281-2.151v7.474 C23.334,21.533,23.884,22.498,24.721,23.079z M30.173,17.833v-2.438c0-0.324-0.08-0.625-0.211-0.896 c1.31-0.459,2.213-1.363,2.213-2.415c0-1.514-1.846-2.741-4.124-2.741s-4.124,1.227-4.124,2.741c0,1.148,1.065,2.129,2.573,2.537 c-0.096,0.238-0.149,0.5-0.149,0.774v2.438c0,0.539,0.206,1.027,0.538,1.387c0.351-0.353,0.837-0.572,1.373-0.572 s1.022,0.219,1.373,0.572C29.967,18.86,30.173,18.373,30.173,17.833z M32.727,24.005l-0.267-0.444l-0.259-0.431l-0.26-0.433 l-0.47-0.781c-0.304-0.505-0.787-0.824-1.308-0.938c-0.181,0.883-0.964,1.548-1.9,1.548c-0.113,0-0.223-0.015-0.331-0.033 c-0.064,0.381-0.016,0.784,0.152,1.162c0.035,0.078,0.065,0.156,0.111,0.231l0.161,0.268l0.301,0.5l0.794,1.32 c0.383,0.636,1.048,0.992,1.717,0.992c0.327,0.002,0.655-0.083,0.952-0.262C33.025,26.16,33.296,24.951,32.727,24.005z M36.143,25.643c-1.127,0-1.931,0.054-2.508,0.244c-0.184,0.061-0.348,0.134-0.487,0.225c-0.268,0.176-0.46,0.415-0.596,0.735 c-0.069,0.162-0.123,0.346-0.166,0.552c-0.113,0.541-0.149,1.239-0.149,2.15c-0.001,0.553,0.446,1,0.999,1s1-0.447,1-1 c0-0.777,0-1.658,0.047-1.8c0.201-0.106,1.083-0.106,1.86-0.106c0.553,0,1-0.448,1-1S36.696,25.643,36.143,25.643z M28.263,21.776 c0.519,0,0.949-0.338,1.111-0.802c0.043-0.122,0.077-0.248,0.078-0.384c0-0.001,0.001-0.002,0.001-0.003 c0-0.098-0.033-0.185-0.056-0.276c-0.007-0.028-0.008-0.058-0.017-0.086c-0.031-0.095-0.076-0.178-0.128-0.261 c-0.069-0.11-0.149-0.206-0.249-0.287c-0.205-0.166-0.455-0.279-0.739-0.279s-0.534,0.113-0.739,0.279 c-0.1,0.082-0.18,0.178-0.25,0.288c-0.067,0.107-0.114,0.22-0.145,0.346c-0.022,0.091-0.056,0.178-0.056,0.276 c0,0.367,0.176,0.683,0.438,0.902c0.096,0.08,0.197,0.153,0.315,0.2c0.119,0.047,0.249,0.071,0.384,0.077 C28.229,21.767,28.244,21.776,28.263,21.776z M25.685,39.668l-1.408,7.927c-0.018,0.103-0.023,0.205-0.019,0.305 c0.027,0.647,0.499,1.214,1.162,1.332c0.54,0.095,1.053-0.135,1.362-0.536c0.134-0.174,0.234-0.378,0.275-0.606l1.414-7.957 c-0.113,0.033-0.222,0.075-0.341,0.096c-0.187,0.033-0.377,0.049-0.566,0.049C26.866,40.278,26.22,40.048,25.685,39.668z M29.203,38.564c0.161-0.171,0.297-0.365,0.399-0.577c0.195-0.409,0.272-0.877,0.188-1.357l-1.903-10.84 c-0.078-0.442-0.283-0.828-0.567-1.135c-0.193-0.209-0.423-0.377-0.678-0.5c-0.3-0.145-0.63-0.232-0.976-0.232 c-0.094,0-0.19,0.013-0.286,0.025c-0.036,0.005-0.071,0.003-0.107,0.009c-0.227,0.04-0.434,0.121-0.629,0.221 c-0.861,0.438-1.38,1.392-1.204,2.393l1.882,10.722l0.021,0.118c0.034,0.195,0.1,0.375,0.178,0.546 c0.096,0.209,0.217,0.401,0.367,0.567c0.42,0.467,1.024,0.754,1.676,0.754c0.13,0,0.261-0.011,0.393-0.034 c0.262-0.046,0.501-0.143,0.72-0.268C28.874,38.864,29.051,38.727,29.203,38.564z"/> </g> </g>
</svg>